<svg width="400" height="92" viewBox="0 0 400 92" fill="none" xmlns="http://www.w3.org/2000/svg">
<g clip-path="url(#clip0_29_87)">
<mask id="mask0_29_87" style="mask-type:luminance" maskUnits="userSpaceOnUse" x="0" y="0" width="400" height="92">
<path d="M400 0H0V92H400V0Z" fill="white"/>
</mask>
<g mask="url(#mask0_29_87)">
<path d="M73.6758 -4.41064L75.5431 -1.32625L73.4141 1.58365" stroke="black" stroke-width="1.5"/>
<path d="M71.6113 -2.99902L72.545 -1.45683L71.4805 -0.0018785" stroke="black" stroke-width="1.5"/>
<path d="M69.0088 -0.710326L68.9172 1.38767C66.8501 1.29742 65.989 1.25983 63.9219 1.16958L63.9481 0.57015L69.1527 -4.00719L69.1789 -4.60662L64.1836 -4.82471L64.092 -2.72671" stroke="black" stroke-width="1.5"/>
<path d="M91.1324 -5.23702C90.8799 -5.51259 90.5282 -5.67669 90.1547 -5.69299C89.7813 -5.7093 89.4166 -5.57668 89.141 -5.32416C88.8653 -5.07165 88.7013 -4.71997 88.685 -4.34652C88.6686 -3.97308 88.8013 -3.60845 89.0538 -3.33277L95.4311 3.62505C95.5416 3.74608 95.6802 3.83807 95.8348 3.89292L97.9799 4.64771C98.0226 4.66251 98.0683 4.66548 98.1124 4.65633C98.1567 4.64717 98.1976 4.62622 98.2309 4.59571C98.2641 4.5652 98.2886 4.52625 98.3015 4.483C98.3144 4.43975 98.3153 4.39381 98.3042 4.35007L97.7397 2.14683C97.699 1.98831 97.6199 1.84222 97.5096 1.72139L91.1324 -5.23702Z" stroke="black" stroke-width="1.33" stroke-linecap="round" stroke-linejoin="round"/>
<path d="M88.9951 0.874674L87.9961 0.831055" stroke="black" stroke-width="1.2" stroke-linecap="round" stroke-linejoin="round"/>
<path d="M91.8164 5.00148L91.8601 4.00244" stroke="black" stroke-width="1.2" stroke-linecap="round" stroke-linejoin="round"/>
<path d="M89.906 2.9165L88.8633 3.87193" stroke="black" stroke-width="1.2" stroke-linecap="round" stroke-linejoin="round"/>
<mask id="mask1_29_87" style="mask-type:luminance" maskUnits="userSpaceOnUse" x="109" y="-8" width="17" height="17">
<path d="M125.84 -7.13754L109.855 -7.83545L109.158 8.14932L125.142 8.84723L125.84 -7.13754Z" fill="white"/>
</mask>
<g mask="url(#mask1_29_87)">
<mask id="mask2_29_87" style="mask-type:luminance" maskUnits="userSpaceOnUse" x="109" y="-8" width="17" height="17">
<path d="M125.843 -7.13754L109.858 -7.83545L109.16 8.14932L125.145 8.84723L125.843 -7.13754Z" fill="white"/>
</mask>
<g mask="url(#mask2_29_87)">
<path d="M110.898 2.72021L110.723 6.7164L114.22 6.86907" stroke="black" stroke-opacity="0.5" stroke-width="1.5"/>
<path d="M123.886 3.28711L123.712 7.28331L120.215 7.13064" stroke="black" stroke-opacity="0.5" stroke-width="1.5"/>
</g>
<path d="M118.86 -3.09424C120.254 -3.00542 121.312 -1.80322 121.223 -0.409308L121.059 2.1675C120.97 3.56152 119.768 4.61966 118.374 4.53094L116.796 4.43046C115.402 4.3416 114.344 3.13952 114.433 1.74553L114.597 -0.831285C114.686 -2.22516 115.888 -3.2834 117.282 -3.19472L118.86 -3.09424ZM117.998 -2.40934C116.735 -2.48967 115.646 -1.53077 115.565 -0.267643L115.465 1.31022C115.384 2.57351 116.343 3.66269 117.606 3.74324C118.87 3.82369 119.959 2.86491 120.039 1.60155L120.14 0.0236885C120.22 -1.23953 119.261 -2.32889 117.998 -2.40934Z" fill="black"/>
</g>
<path d="M141.74 -4.44141L140.298 -0.625361C140.224 -0.430064 140.105 -0.254822 139.951 -0.113769C139.798 0.027297 139.613 0.130232 139.412 0.186753L135.484 1.29116L139.3 2.73365C139.496 2.80747 139.671 2.92613 139.812 3.08008C139.953 3.23401 140.056 3.41893 140.113 3.61992L141.217 7.54716L142.659 3.73112C142.733 3.53582 142.852 3.36058 143.006 3.21952C143.16 3.07846 143.345 2.97552 143.546 2.919L147.473 1.81459L143.657 0.372106C143.462 0.298283 143.286 0.179623 143.145 0.0256777C143.004 -0.128256 142.901 -0.313173 142.845 -0.514161L141.74 -4.44141Z" fill="black" fill-opacity="0.15" stroke="black" stroke-width="1.42857" stroke-linecap="round" stroke-linejoin="round"/>
<path d="M145.995 5.08643L145.879 7.75055M144.605 6.36029L147.269 6.47661" stroke="black" stroke-opacity="0.75" stroke-width="1.42857" stroke-linecap="round" stroke-linejoin="round"/>
<path d="M169.582 -0.223145L171.449 2.86124L169.32 5.77114" stroke="black" stroke-width="1.5"/>
<path d="M167.522 1.18799L168.455 2.73018L167.391 4.18513" stroke="black" stroke-width="1.5"/>
<mask id="mask3_29_87" style="mask-type:luminance" maskUnits="userSpaceOnUse" x="181" y="-5" width="17" height="17">
<path d="M197.774 -3.99691L181.789 -4.69482L181.091 11.2899L197.076 11.9879L197.774 -3.99691Z" fill="white"/>
</mask>
<g mask="url(#mask3_29_87)">
<mask id="mask4_29_87" style="mask-type:luminance" maskUnits="userSpaceOnUse" x="181" y="-5" width="17" height="17">
<path d="M197.776 -3.99691L181.792 -4.69482L181.094 11.2899L197.078 11.9878L197.776 -3.99691Z" fill="white"/>
</mask>
<g mask="url(#mask4_29_87)">
<path d="M183.047 0.865331L183.222 -3.13086L186.718 -2.97819" stroke="black" stroke-opacity="0.5" stroke-width="1.5"/>
<path d="M196.037 1.43255L196.211 -2.56365L192.715 -2.71631" stroke="black" stroke-opacity="0.5" stroke-width="1.5"/>
<path d="M182.83 5.86035L182.656 9.85655L186.152 10.0092" stroke="black" stroke-opacity="0.5" stroke-width="1.5"/>
<path d="M195.819 6.42773L195.644 10.4239L192.148 10.2713" stroke="black" stroke-opacity="0.5" stroke-width="1.5"/>
</g>
<path d="M190.86 -0.0942386C192.254 -0.0054166 193.312 1.19678 193.223 2.59069L193.059 5.1675C192.97 6.56152 191.768 7.61966 190.374 7.53094L188.796 7.43046C187.402 7.3416 186.344 6.13952 186.433 4.74553L186.597 2.16871C186.686 0.774841 187.888 -0.2834 189.282 -0.194721L190.86 -0.0942386ZM189.998 0.590664C188.735 0.510328 187.646 1.46923 187.565 2.73236L187.465 4.31022C187.384 5.57351 188.343 6.66269 189.606 6.74324C190.87 6.82369 191.959 5.86491 192.039 4.60155L192.14 3.02369C192.22 1.76047 191.261 0.671111 189.998 0.590664Z" fill="black"/>
</g>
<path d="M211.02 -0.00263974C210.767 -0.278216 210.416 -0.442312 210.042 -0.458617C209.669 -0.474923 209.304 -0.342303 209.029 -0.0897859C208.753 0.162731 208.589 0.514411 208.572 0.887853C208.556 1.26129 208.689 1.62593 208.941 1.90161L215.319 8.85942C215.429 8.98046 215.568 9.07244 215.722 9.12729L217.867 9.88208C217.91 9.89689 217.956 9.89986 218 9.89071C218.044 9.88155 218.085 9.8606 218.118 9.83008C218.152 9.79957 218.176 9.76062 218.189 9.71737C218.202 9.67412 218.203 9.62819 218.192 9.58444L217.627 7.38121C217.587 7.22269 217.507 7.0766 217.397 6.95576L211.02 -0.00263974Z" stroke="black" stroke-width="1.33" stroke-linecap="round" stroke-linejoin="round"/>
<path d="M209.5 2.52072L211.586 0.609863" stroke="black" stroke-width="1.33" stroke-linecap="round" stroke-linejoin="round"/>
<path d="M208.882 6.10905L207.883 6.06543" stroke="black" stroke-width="1.2" stroke-linecap="round" stroke-linejoin="round"/>
<path d="M218.176 3.33008L219.175 3.3737" stroke="black" stroke-width="1.2" stroke-linecap="round" stroke-linejoin="round"/>
<path d="M211.703 10.2359L211.747 9.23682" stroke="black" stroke-width="1.2" stroke-linecap="round" stroke-linejoin="round"/>
<path d="M215.353 -0.796875L215.309 0.202173" stroke="black" stroke-width="1.2" stroke-linecap="round" stroke-linejoin="round"/>
<path d="M209.793 8.15088L208.75 9.10631" stroke="black" stroke-width="1.2" stroke-linecap="round" stroke-linejoin="round"/>
<path d="M217.262 1.28844L218.305 0.333008" stroke="black" stroke-width="1.2" stroke-linecap="round" stroke-linejoin="round"/>
<path d="M241.515 2.91748L243.383 6.00186L241.254 8.91177" stroke="black" stroke-width="1.5"/>
<path d="M239.451 4.32861L240.385 5.87081L239.32 7.32576" stroke="black" stroke-width="1.5"/>
<path d="M258.972 2.09111C258.72 1.81553 258.368 1.65144 257.995 1.63513C257.621 1.61882 257.257 1.75144 256.981 2.00396C256.705 2.25648 256.541 2.60816 256.525 2.9816C256.508 3.35504 256.641 3.71968 256.894 3.99535L263.271 10.9532C263.381 11.0742 263.52 11.1662 263.675 11.221L265.82 11.9758C265.862 11.9906 265.908 11.9936 265.952 11.9845C265.997 11.9753 266.038 11.9543 266.071 11.9238C266.104 11.8933 266.128 11.8544 266.141 11.8111C266.154 11.7679 266.155 11.7219 266.144 11.6782L265.58 9.47496C265.539 9.31644 265.46 9.17035 265.349 9.04951L258.972 2.09111Z" stroke="black" stroke-width="1.33" stroke-linecap="round" stroke-linejoin="round"/>
<path d="M257.457 4.61447L259.542 2.70361" stroke="black" stroke-width="1.33" stroke-linecap="round" stroke-linejoin="round"/>
<path d="M256.835 8.2028L255.836 8.15918" stroke="black" stroke-width="1.2" stroke-linecap="round" stroke-linejoin="round"/>
<path d="M266.129 5.42383L267.128 5.46745" stroke="black" stroke-width="1.2" stroke-linecap="round" stroke-linejoin="round"/>
<path d="M259.656 12.3297L259.7 11.3306" stroke="black" stroke-width="1.2" stroke-linecap="round" stroke-linejoin="round"/>
<path d="M263.305 1.29688L263.262 2.29593" stroke="black" stroke-width="1.2" stroke-linecap="round" stroke-linejoin="round"/>
<path d="M257.745 10.2441L256.703 11.1995" stroke="black" stroke-width="1.2" stroke-linecap="round" stroke-linejoin="round"/>
<path d="M265.215 3.38219L266.258 2.42676" stroke="black" stroke-width="1.2" stroke-linecap="round" stroke-linejoin="round"/>
<mask id="mask5_29_87" style="mask-type:luminance" maskUnits="userSpaceOnUse" x="276" y="-1" width="18" height="18">
<path d="M293.68 0.190586L277.695 -0.507324L276.997 15.4774L292.982 16.1754L293.68 0.190586Z" fill="white"/>
</mask>
<g mask="url(#mask5_29_87)">
<mask id="mask6_29_87" style="mask-type:luminance" maskUnits="userSpaceOnUse" x="277" y="-1" width="17" height="18">
<path d="M293.683 0.190586L277.698 -0.507324L277 15.4774L292.985 16.1753L293.683 0.190586Z" fill="white"/>
</mask>
<g mask="url(#mask6_29_87)">
<path d="M278.957 5.05283L279.131 1.05664L282.628 1.20931" stroke="black" stroke-opacity="0.5" stroke-width="1.5"/>
<path d="M291.944 5.62005L292.118 1.62385L288.621 1.47119" stroke="black" stroke-opacity="0.5" stroke-width="1.5"/>
<path d="M278.738 10.0479L278.562 14.0441L282.06 14.1968" stroke="black" stroke-opacity="0.5" stroke-width="1.5"/>
<path d="M291.726 10.6152L291.552 14.6114L288.055 14.4588" stroke="black" stroke-opacity="0.5" stroke-width="1.5"/>
</g>
<path d="M286.86 3.90576C288.254 3.99458 289.312 5.19678 289.223 6.59069L289.059 9.1675C288.97 10.5615 287.768 11.6197 286.374 11.5309L284.796 11.4305C283.402 11.3416 282.344 10.1395 282.433 8.74553L282.597 6.16871C282.686 4.77484 283.888 3.7166 285.282 3.80528L286.86 3.90576ZM285.998 4.59066C284.735 4.51033 283.646 5.46923 283.565 6.73236L283.465 8.31022C283.384 9.57351 284.343 10.6627 285.606 10.7432C286.87 10.8237 287.959 9.86491 288.039 8.60155L288.14 7.02369C288.22 5.76047 287.261 4.67111 285.998 4.59066Z" fill="black"/>
</g>
<mask id="mask7_29_87" style="mask-type:luminance" maskUnits="userSpaceOnUse" x="300" y="0" width="18" height="18">
<path d="M317.657 1.23746L301.672 0.539551L300.974 16.5243L316.959 17.2222L317.657 1.23746Z" fill="white"/>
</mask>
<g mask="url(#mask7_29_87)">
<path d="M309.58 2.88672L308.138 6.70277C308.064 6.89806 307.945 7.07331 307.792 7.21436C307.638 7.35543 307.453 7.45836 307.252 7.51488L303.324 8.61929L307.141 10.0618C307.336 10.1356 307.511 10.2542 307.652 10.4082C307.793 10.5621 307.896 10.747 307.953 10.948L309.057 14.8753L310.5 11.0592C310.573 10.8639 310.692 10.6887 310.846 10.5476C311 10.4066 311.185 10.3036 311.386 10.2471L315.313 9.14272L311.497 7.70023C311.302 7.62641 311.126 7.50775 310.985 7.35381C310.844 7.19987 310.741 7.01496 310.685 6.81397L309.58 2.88672Z" fill="black" fill-opacity="0.15" stroke="black" stroke-width="1.42857" stroke-linecap="round" stroke-linejoin="round"/>
<path d="M304.917 2.68311L304.801 5.34724M303.527 3.95702L306.191 4.07334" stroke="black" stroke-opacity="0.75" stroke-width="1.42857" stroke-linecap="round" stroke-linejoin="round"/>
<path d="M313.835 12.4146L313.718 15.0787M312.445 13.6884L315.109 13.8047" stroke="black" stroke-opacity="0.75" stroke-width="1.42857" stroke-linecap="round" stroke-linejoin="round"/>
</g>
<path d="M337.422 7.10498L339.289 10.1894L337.16 13.0993" stroke="black" stroke-width="1.5"/>
<path d="M335.361 8.51611L336.294 10.0583L335.23 11.5133" stroke="black" stroke-width="1.5"/>
<mask id="mask8_29_87" style="mask-type:luminance" maskUnits="userSpaceOnUse" x="348" y="2" width="18" height="18">
<path d="M365.614 3.33121L349.629 2.6333L348.931 18.6181L364.916 19.316L365.614 3.33121Z" fill="white"/>
</mask>
<g mask="url(#mask8_29_87)">
<mask id="mask9_29_87" style="mask-type:luminance" maskUnits="userSpaceOnUse" x="348" y="2" width="18" height="18">
<path d="M365.616 3.33121L349.632 2.6333L348.934 18.6181L364.919 19.316L365.616 3.33121Z" fill="white"/>
</mask>
<g mask="url(#mask9_29_87)">
<path d="M350.887 8.19346L351.062 4.19727L354.558 4.34994" stroke="black" stroke-opacity="0.5" stroke-width="1.5"/>
<path d="M363.877 8.76068L364.051 4.76449L360.555 4.61182" stroke="black" stroke-opacity="0.5" stroke-width="1.5"/>
<path d="M350.67 13.189L350.496 17.1852L353.992 17.3378" stroke="black" stroke-opacity="0.5" stroke-width="1.5"/>
<path d="M363.659 13.7559L363.484 17.7521L359.988 17.5994" stroke="black" stroke-opacity="0.5" stroke-width="1.5"/>
</g>
<path d="M358.86 6.90576C360.254 6.99458 361.312 8.19678 361.223 9.59069L361.059 12.1675C360.97 13.5615 359.768 14.6197 358.374 14.5309L356.796 14.4305C355.402 14.3416 354.344 13.1395 354.433 11.7455L354.597 9.16871C354.686 7.77484 355.888 6.7166 357.282 6.80528L358.86 6.90576ZM357.998 7.59066C356.735 7.51033 355.646 8.46923 355.565 9.73236L355.465 11.3102C355.384 12.5735 356.343 13.6627 357.606 13.7432C358.87 13.8237 359.959 12.8649 360.039 11.6015L360.14 10.0237C360.22 8.76047 359.261 7.67111 357.998 7.59066Z" fill="black"/>
</g>
<path d="M378.859 7.32549C378.606 7.04991 378.255 6.88582 377.881 6.86951C377.508 6.85321 377.143 6.98583 376.868 7.23835C376.592 7.49086 376.428 7.84254 376.412 8.21598C376.395 8.58943 376.528 8.95406 376.78 9.22974L383.158 16.1876C383.268 16.3086 383.407 16.4006 383.561 16.4555L385.707 17.2102C385.749 17.2251 385.795 17.228 385.839 17.2189C385.883 17.2097 385.924 17.1888 385.958 17.1582C385.991 17.1277 386.015 17.0888 386.028 17.0455C386.041 17.0023 386.042 16.9564 386.031 16.9126L385.466 14.7094C385.426 14.5509 385.347 14.4048 385.236 14.2839L378.859 7.32549Z" stroke="black" stroke-width="1.33" stroke-linecap="round" stroke-linejoin="round"/>
<path d="M377.34 9.84884L379.426 7.93799" stroke="black" stroke-width="1.33" stroke-linecap="round" stroke-linejoin="round"/>
<path d="M376.722 13.4367L375.723 13.3931" stroke="black" stroke-width="1.2" stroke-linecap="round" stroke-linejoin="round"/>
<path d="M386.016 10.6582L387.015 10.7019" stroke="black" stroke-width="1.2" stroke-linecap="round" stroke-linejoin="round"/>
<path d="M379.543 17.564L379.587 16.5649" stroke="black" stroke-width="1.2" stroke-linecap="round" stroke-linejoin="round"/>
<path d="M383.192 6.53076L383.148 7.52981" stroke="black" stroke-width="1.2" stroke-linecap="round" stroke-linejoin="round"/>
<path d="M377.633 15.4785L376.59 16.4339" stroke="black" stroke-width="1.2" stroke-linecap="round" stroke-linejoin="round"/>
<path d="M385.102 8.61656L386.145 7.66113" stroke="black" stroke-width="1.2" stroke-linecap="round" stroke-linejoin="round"/>
<mask id="mask10_29_87" style="mask-type:luminance" maskUnits="userSpaceOnUse" x="58" y="46" width="18" height="17">
<path d="M75.4457 46.7155L59.4609 46.0176L58.763 62.0023L74.7478 62.7003L75.4457 46.7155Z" fill="white"/>
</mask>
<g mask="url(#mask10_29_87)">
<mask id="mask11_29_87" style="mask-type:luminance" maskUnits="userSpaceOnUse" x="58" y="46" width="18" height="17">
<path d="M75.4483 46.7155L59.4635 46.0176L58.7656 62.0024L74.7503 62.7003L75.4483 46.7155Z" fill="white"/>
</mask>
<g mask="url(#mask11_29_87)">
<path d="M60.7227 51.5777L60.8972 47.5815L64.3939 47.7341" stroke="black" stroke-opacity="0.5" stroke-width="1.5"/>
<path d="M73.7088 52.1445L73.8833 48.1483L70.3867 47.9956" stroke="black" stroke-opacity="0.5" stroke-width="1.5"/>
<path d="M60.5026 56.5728L60.3281 60.569L63.8248 60.7217" stroke="black" stroke-opacity="0.5" stroke-width="1.5"/>
<path d="M73.4914 57.1401L73.317 61.1362L69.8203 60.9836" stroke="black" stroke-opacity="0.5" stroke-width="1.5"/>
</g>
<path d="M68.8599 49.9058C70.2538 49.9946 71.3119 51.1968 71.2233 52.5907L71.0592 55.1675C70.9704 56.5615 69.7683 57.6197 68.3743 57.5309L66.7964 57.4305C65.4024 57.3416 64.3442 56.1395 64.433 54.7455L64.5971 52.1687C64.686 50.7748 65.8881 49.7166 67.282 49.8053L68.8599 49.9058ZM67.9982 50.5907C66.735 50.5103 65.6458 51.4692 65.5652 52.7324L65.4647 54.3102C65.3842 55.5735 66.3431 56.6627 67.6064 56.7432C68.8697 56.8237 69.9589 55.8649 70.0394 54.6015L70.1399 53.0237C70.2201 51.7605 69.2614 50.6711 67.9982 50.5907Z" fill="black"/>
</g>
<path d="M91.3458 49.4116L89.9033 53.2276C89.8295 53.4229 89.7108 53.5981 89.5569 53.7392C89.403 53.8803 89.218 53.9832 89.0171 54.0397L85.0898 55.1441L88.9059 56.5866C89.1012 56.6604 89.2764 56.7791 89.4174 56.933C89.5585 57.087 89.6614 57.2719 89.718 57.4729L90.8224 61.4001L92.2649 57.5841C92.3387 57.3888 92.4573 57.2135 92.6113 57.0725C92.7652 56.9314 92.9501 56.8285 93.1511 56.772L97.0784 55.6676L93.2623 54.2251C93.067 54.1512 92.8918 54.0326 92.7507 53.8786C92.6097 53.7247 92.5067 53.5398 92.4502 53.3388L91.3458 49.4116Z" fill="black" fill-opacity="0.15" stroke="black" stroke-width="1.42857" stroke-linecap="round" stroke-linejoin="round"/>
<path d="M86.6832 49.208L86.5669 51.8721M85.293 50.4819L87.9571 50.5982" stroke="black" stroke-opacity="0.75" stroke-width="1.42857" stroke-linecap="round" stroke-linejoin="round"/>
<path d="M95.5972 58.9395L95.4809 61.6036M94.207 60.2133L96.8711 60.3297" stroke="black" stroke-opacity="0.75" stroke-width="1.42857" stroke-linecap="round" stroke-linejoin="round"/>
<path d="M112.668 51.7566C112.415 51.4811 112.063 51.317 111.69 51.3007C111.316 51.2844 110.952 51.417 110.676 51.6695C110.401 51.922 110.237 52.2737 110.22 52.6471C110.204 53.0206 110.337 53.3852 110.589 53.6609L116.966 60.6187C117.077 60.7397 117.215 60.8317 117.37 60.8866L119.515 61.6414C119.558 61.6562 119.604 61.6591 119.648 61.65C119.692 61.6408 119.733 61.6199 119.766 61.5894C119.799 61.5588 119.824 61.5199 119.837 61.4766C119.85 61.4334 119.85 61.3875 119.839 61.3437L119.275 59.1405C119.234 58.982 119.155 58.8359 119.045 58.715L112.668 51.7566Z" stroke="black" stroke-width="1.33" stroke-linecap="round" stroke-linejoin="round"/>
<path d="M111.152 54.2799L113.237 52.3691" stroke="black" stroke-width="1.33" stroke-linecap="round" stroke-linejoin="round"/>
<path d="M110.53 57.8684L109.531 57.8247" stroke="black" stroke-width="1.2" stroke-linecap="round" stroke-linejoin="round"/>
<path d="M119.824 55.0894L120.823 55.133" stroke="black" stroke-width="1.2" stroke-linecap="round" stroke-linejoin="round"/>
<path d="M113.352 61.9952L113.395 60.9961" stroke="black" stroke-width="1.2" stroke-linecap="round" stroke-linejoin="round"/>
<path d="M117.001 50.9624L116.957 51.9615" stroke="black" stroke-width="1.2" stroke-linecap="round" stroke-linejoin="round"/>
<path d="M111.441 59.9097L110.398 60.8651" stroke="black" stroke-width="1.2" stroke-linecap="round" stroke-linejoin="round"/>
<path d="M118.91 53.0478L119.952 52.0923" stroke="black" stroke-width="1.2" stroke-linecap="round" stroke-linejoin="round"/>
<path d="M143.164 54.6768L145.031 57.7612L142.902 60.6711" stroke="black" stroke-width="1.5"/>
<path d="M141.1 56.0884L142.033 57.6305L140.969 59.0855" stroke="black" stroke-width="1.5"/>
<mask id="mask12_29_87" style="mask-type:luminance" maskUnits="userSpaceOnUse" x="154" y="50" width="18" height="17">
<path d="M171.352 50.903L155.367 50.2051L154.669 66.1898L170.654 66.8878L171.352 50.903Z" fill="white"/>
</mask>
<g mask="url(#mask12_29_87)">
<mask id="mask13_29_87" style="mask-type:luminance" maskUnits="userSpaceOnUse" x="154" y="50" width="18" height="17">
<path d="M171.355 50.903L155.37 50.2051L154.672 66.1898L170.657 66.8878L171.355 50.903Z" fill="white"/>
</mask>
<g mask="url(#mask13_29_87)">
<path d="M156.629 55.7652L156.803 51.769L160.3 51.9217" stroke="black" stroke-opacity="0.5" stroke-width="1.5"/>
<path d="M169.615 56.3324L169.79 52.3362L166.293 52.1836" stroke="black" stroke-opacity="0.5" stroke-width="1.5"/>
<path d="M156.408 60.7607L156.234 64.7568L159.731 64.9095" stroke="black" stroke-opacity="0.5" stroke-width="1.5"/>
<path d="M169.398 61.3276L169.224 65.3238L165.727 65.1711" stroke="black" stroke-opacity="0.5" stroke-width="1.5"/>
</g>
<path d="M164.586 54.2612C165.98 54.3501 167.038 55.5522 166.95 56.9462L166.786 59.523C166.697 60.917 165.495 61.9751 164.101 61.8864L162.523 61.7859C161.129 61.6971 160.071 60.495 160.16 59.101L160.324 56.5242C160.413 55.1303 161.615 54.0721 163.009 54.1607L164.586 54.2612ZM163.725 54.9461C162.462 54.8658 161.372 55.8247 161.292 57.0878L161.191 58.6657C161.111 59.929 162.07 61.0182 163.333 61.0987C164.596 61.1792 165.685 60.2204 165.766 58.957L165.866 57.3792C165.947 56.1159 164.988 55.0266 163.725 54.9461Z" fill="black"/>
</g>
<path d="M187.252 53.5991L185.81 57.4151C185.736 57.6104 185.617 57.7857 185.463 57.9267C185.309 58.0678 185.124 58.1707 184.923 58.2273L180.996 59.3317L184.812 60.7742C185.007 60.848 185.183 60.9666 185.324 61.1206C185.465 61.2745 185.568 61.4594 185.624 61.6604L186.729 65.5877L188.171 61.7716C188.245 61.5763 188.364 61.4011 188.518 61.26C188.672 61.119 188.856 61.016 189.057 60.9595L192.985 59.8551L189.169 58.4126C188.973 58.3388 188.798 58.2201 188.657 58.0662C188.516 57.9122 188.413 57.7273 188.357 57.5263L187.252 53.5991Z" fill="black" fill-opacity="0.15" stroke="black" stroke-width="1.42857" stroke-linecap="round" stroke-linejoin="round"/>
<path d="M182.589 53.3955L182.473 56.0597M181.199 54.6694L183.863 54.7858" stroke="black" stroke-opacity="0.75" stroke-width="1.42857" stroke-linecap="round" stroke-linejoin="round"/>
<path d="M191.507 63.127L191.391 65.7911M190.117 64.4009L192.781 64.5172" stroke="black" stroke-opacity="0.75" stroke-width="1.42857" stroke-linecap="round" stroke-linejoin="round"/>
<path d="M208.577 55.9441C208.325 55.6686 207.973 55.5045 207.6 55.4882C207.226 55.4719 206.862 55.6045 206.586 55.857C206.31 56.1095 206.146 56.4612 206.13 56.8346C206.114 57.2081 206.246 57.5727 206.499 57.8484L212.876 64.8062C212.987 64.9272 213.125 65.0192 213.28 65.0741L215.425 65.8289C215.467 65.8437 215.513 65.8466 215.557 65.8375C215.602 65.8283 215.643 65.8074 215.676 65.7769C215.709 65.7463 215.733 65.7074 215.746 65.6641C215.759 65.6209 215.76 65.575 215.749 65.5312L215.185 63.328C215.144 63.1695 215.065 63.0234 214.954 62.9025L208.577 55.9441Z" stroke="black" stroke-width="1.33" stroke-linecap="round" stroke-linejoin="round"/>
<path d="M207.059 58.4674L209.144 56.5566" stroke="black" stroke-width="1.33" stroke-linecap="round" stroke-linejoin="round"/>
<path d="M206.438 62.0559L205.438 62.0122" stroke="black" stroke-width="1.2" stroke-linecap="round" stroke-linejoin="round"/>
<path d="M215.73 59.2769L216.729 59.3205" stroke="black" stroke-width="1.2" stroke-linecap="round" stroke-linejoin="round"/>
<path d="M209.262 66.1827L209.306 65.1836" stroke="black" stroke-width="1.2" stroke-linecap="round" stroke-linejoin="round"/>
<path d="M212.91 55.1499L212.867 56.149" stroke="black" stroke-width="1.2" stroke-linecap="round" stroke-linejoin="round"/>
<path d="M207.351 64.0972L206.309 65.0526" stroke="black" stroke-width="1.2" stroke-linecap="round" stroke-linejoin="round"/>
<path d="M214.82 57.2353L215.863 56.2798" stroke="black" stroke-width="1.2" stroke-linecap="round" stroke-linejoin="round"/>
<path d="M239.071 58.8643L240.938 61.9487L238.809 64.8586" stroke="black" stroke-width="1.5"/>
<path d="M237.01 60.2754L237.944 61.8176L236.879 63.2725" stroke="black" stroke-width="1.5"/>
<path d="M232.586 57.2612C233.98 57.3501 235.038 58.5522 234.95 59.9462L234.786 62.523C234.697 63.917 233.495 64.9751 232.101 64.8864L230.523 64.7859C229.129 64.6971 228.071 63.495 228.16 62.101L228.324 59.5242C228.413 58.1303 229.615 57.0721 231.009 57.1607L232.586 57.2612ZM231.725 57.9461C230.462 57.8658 229.372 58.8247 229.292 60.0878L229.191 61.6657C229.111 62.929 230.07 64.0182 231.333 64.0987C232.596 64.1792 233.685 63.2204 233.766 61.957L233.866 60.3792C233.947 59.1159 232.988 58.0266 231.725 57.9461Z" fill="black"/>
<mask id="mask14_29_87" style="mask-type:luminance" maskUnits="userSpaceOnUse" x="250" y="54" width="18" height="18">
<path d="M267.262 55.0905L251.277 54.3926L250.579 70.3773L266.564 71.0753L267.262 55.0905Z" fill="white"/>
</mask>
<g mask="url(#mask14_29_87)">
<mask id="mask15_29_87" style="mask-type:luminance" maskUnits="userSpaceOnUse" x="250" y="54" width="18" height="18">
<path d="M267.265 55.0905L251.28 54.3926L250.582 70.3773L266.567 71.0753L267.265 55.0905Z" fill="white"/>
</mask>
<g mask="url(#mask15_29_87)">
<path d="M252.539 59.9527L252.713 55.9565L256.21 56.1092" stroke="black" stroke-opacity="0.5" stroke-width="1.5"/>
<path d="M265.526 60.5199L265.7 56.5237L262.203 56.3711" stroke="black" stroke-opacity="0.5" stroke-width="1.5"/>
<path d="M252.32 64.9482L252.145 68.9443L255.642 69.097" stroke="black" stroke-opacity="0.5" stroke-width="1.5"/>
<path d="M265.308 65.5151L265.134 69.5113L261.637 69.3586" stroke="black" stroke-opacity="0.5" stroke-width="1.5"/>
</g>
<path d="M260.586 59.2612C261.98 59.3501 263.038 60.5522 262.95 61.9462L262.786 64.523C262.697 65.917 261.495 66.9751 260.101 66.8864L258.523 66.7859C257.129 66.6971 256.071 65.495 256.16 64.101L256.324 61.5242C256.413 60.1303 257.615 59.0721 259.009 59.1607L260.586 59.2612ZM259.725 59.9461C258.462 59.8658 257.372 60.8247 257.292 62.0878L257.191 63.6657C257.111 64.929 258.07 66.0182 259.333 66.0987C260.596 66.1792 261.685 65.2204 261.766 63.957L261.866 62.3792C261.947 61.1159 260.988 60.0266 259.725 59.9461Z" fill="black"/>
</g>
<mask id="mask16_29_87" style="mask-type:luminance" maskUnits="userSpaceOnUse" x="274" y="55" width="18" height="18">
<path d="M291.239 56.1374L275.254 55.4395L274.556 71.4242L290.541 72.1221L291.239 56.1374Z" fill="white"/>
</mask>
<g mask="url(#mask16_29_87)">
<path d="M283.162 57.7866L281.719 61.6026C281.645 61.7979 281.527 61.9732 281.373 62.1142C281.219 62.2553 281.034 62.3582 280.833 62.4148L276.906 63.5192L280.722 64.9617C280.917 65.0355 281.092 65.1541 281.233 65.3081C281.374 65.462 281.477 65.6469 281.534 65.8479L282.638 69.7752L284.081 65.9591C284.155 65.7638 284.273 65.5886 284.427 65.4475C284.581 65.3065 284.766 65.2035 284.967 65.147L288.894 64.0426L285.078 62.6001C284.883 62.5263 284.708 62.4076 284.567 62.2537C284.426 62.0997 284.323 61.9148 284.266 61.7138L283.162 57.7866Z" fill="black" fill-opacity="0.15" stroke="black" stroke-width="1.42857" stroke-linecap="round" stroke-linejoin="round"/>
<path d="M278.5 57.583L278.383 60.2472M277.109 58.8569L279.773 58.9733" stroke="black" stroke-opacity="0.75" stroke-width="1.42857" stroke-linecap="round" stroke-linejoin="round"/>
<path d="M287.417 67.3149L287.301 69.979M286.027 68.5887L288.691 68.705" stroke="black" stroke-opacity="0.75" stroke-width="1.42857" stroke-linecap="round" stroke-linejoin="round"/>
</g>
<path d="M304.484 60.1317C304.231 59.8561 303.88 59.692 303.506 59.6757C303.133 59.6594 302.768 59.792 302.493 60.0445C302.217 60.297 302.053 60.6487 302.037 61.0222C302.02 61.3956 302.153 61.7602 302.405 62.0359L308.783 68.9937C308.893 69.1148 309.032 69.2068 309.186 69.2616L311.331 70.0164C311.374 70.0312 311.42 70.0342 311.464 70.025C311.508 70.0159 311.549 69.9949 311.582 69.9644C311.616 69.9339 311.64 69.8949 311.653 69.8517C311.666 69.8084 311.667 69.7625 311.656 69.7188L311.091 67.5155C311.051 67.357 310.972 67.2109 310.861 67.0901L304.484 60.1317Z" stroke="black" stroke-width="1.33" stroke-linecap="round" stroke-linejoin="round"/>
<path d="M302.969 62.655L305.055 60.7441" stroke="black" stroke-width="1.33" stroke-linecap="round" stroke-linejoin="round"/>
<path d="M302.347 66.2433L301.348 66.1997" stroke="black" stroke-width="1.2" stroke-linecap="round" stroke-linejoin="round"/>
<path d="M311.641 63.4644L312.64 63.508" stroke="black" stroke-width="1.2" stroke-linecap="round" stroke-linejoin="round"/>
<path d="M305.168 70.3701L305.212 69.3711" stroke="black" stroke-width="1.2" stroke-linecap="round" stroke-linejoin="round"/>
<path d="M308.817 59.3374L308.773 60.3364" stroke="black" stroke-width="1.2" stroke-linecap="round" stroke-linejoin="round"/>
<path d="M303.258 68.2847L302.215 69.2402" stroke="black" stroke-width="1.2" stroke-linecap="round" stroke-linejoin="round"/>
<path d="M310.727 61.4227L311.77 60.4673" stroke="black" stroke-width="1.2" stroke-linecap="round" stroke-linejoin="round"/>
<mask id="mask17_29_87" style="mask-type:luminance" maskUnits="userSpaceOnUse" x="322" y="57" width="18" height="18">
<path d="M339.192 58.2311L323.207 57.5332L322.509 73.518L338.494 74.2159L339.192 58.2311Z" fill="white"/>
</mask>
<g mask="url(#mask17_29_87)">
<path d="M331.115 59.8804L329.673 63.6964C329.599 63.8917 329.48 64.067 329.326 64.208C329.172 64.3491 328.987 64.452 328.786 64.5085L324.859 65.613L328.675 67.0554C328.87 67.1293 329.046 67.2479 329.187 67.4019C329.328 67.5558 329.431 67.7407 329.487 67.9417L330.592 71.869L332.034 68.0529C332.108 67.8576 332.227 67.6824 332.381 67.5413C332.535 67.4003 332.719 67.2973 332.92 67.2408L336.848 66.1364L333.032 64.6939C332.836 64.6201 332.661 64.5014 332.52 64.3475C332.379 64.1935 332.276 64.0086 332.22 63.8076L331.115 59.8804Z" fill="black" fill-opacity="0.15" stroke="black" stroke-width="1.42857" stroke-linecap="round" stroke-linejoin="round"/>
<path d="M326.453 59.6768L326.337 62.3409M325.062 60.9507L327.727 61.0671" stroke="black" stroke-opacity="0.75" stroke-width="1.42857" stroke-linecap="round" stroke-linejoin="round"/>
<path d="M335.37 69.4082L335.254 72.0724M333.98 70.6821L336.644 70.7984" stroke="black" stroke-opacity="0.75" stroke-width="1.42857" stroke-linecap="round" stroke-linejoin="round"/>
</g>
<path d="M358.957 64.0986L360.824 67.183L358.695 70.0929" stroke="black" stroke-width="1.5"/>
<path d="M356.893 65.5098L357.827 67.052L356.762 68.5069" stroke="black" stroke-width="1.5"/>
<mask id="mask18_29_87" style="mask-type:luminance" maskUnits="userSpaceOnUse" x="370" y="59" width="18" height="18">
<path d="M387.145 60.3249L371.16 59.627L370.462 75.6117L386.447 76.3096L387.145 60.3249Z" fill="white"/>
</mask>
<g mask="url(#mask18_29_87)">
<mask id="mask19_29_87" style="mask-type:luminance" maskUnits="userSpaceOnUse" x="370" y="59" width="18" height="18">
<path d="M387.148 60.3249L371.163 59.627L370.465 75.6118L386.45 76.3097L387.148 60.3249Z" fill="white"/>
</mask>
<g mask="url(#mask19_29_87)">
<path d="M372.422 65.1871L372.596 61.1909L376.093 61.3436" stroke="black" stroke-opacity="0.5" stroke-width="1.5"/>
<path d="M385.409 65.7543L385.583 61.7581L382.086 61.6055" stroke="black" stroke-opacity="0.5" stroke-width="1.5"/>
<path d="M372.202 70.1826L372.027 74.1788L375.524 74.3314" stroke="black" stroke-opacity="0.5" stroke-width="1.5"/>
<path d="M385.191 70.7495L385.017 74.7457L381.52 74.593" stroke="black" stroke-opacity="0.5" stroke-width="1.5"/>
</g>
<path d="M379.586 64.2612C380.98 64.3501 382.038 65.5522 381.95 66.9462L381.786 69.523C381.697 70.917 380.495 71.9751 379.101 71.8864L377.523 71.7859C376.129 71.6971 375.071 70.495 375.16 69.101L375.324 66.5242C375.413 65.1303 376.615 64.0721 378.009 64.1607L379.586 64.2612ZM378.725 64.9461C377.462 64.8658 376.372 65.8247 376.292 67.0878L376.191 68.6657C376.111 69.929 377.07 71.0182 378.333 71.0987C379.596 71.1792 380.685 70.2204 380.766 68.957L380.866 67.3792C380.947 66.1159 379.988 65.0266 378.725 64.9461Z" fill="black"/>
</g>
<path d="M53.9449 21.1663C53.6924 20.8907 53.3407 20.7266 52.9673 20.7103C52.5938 20.694 52.2291 20.8266 51.9534 21.0791C51.6778 21.3316 51.5139 21.6833 51.4975 22.0568C51.4811 22.4302 51.6137 22.7948 51.8662 23.0705L58.2435 30.0283C58.354 30.1494 58.4928 30.2413 58.6473 30.2962L60.7924 31.051C60.8351 31.0658 60.8809 31.0688 60.9251 31.0596C60.9693 31.0504 61.0102 31.0295 61.0434 30.999C61.0767 30.9685 61.1011 30.9295 61.114 30.8863C61.1269 30.843 61.1277 30.7971 61.1166 30.7533L60.5522 28.5501C60.5115 28.3916 60.4325 28.2455 60.3221 28.1247L53.9449 21.1663Z" stroke="black" stroke-width="1.33" stroke-linecap="round" stroke-linejoin="round"/>
<path d="M52.4297 23.6897L54.5151 21.7788" stroke="black" stroke-width="1.33" stroke-linecap="round" stroke-linejoin="round"/>
<path d="M51.8077 27.2775L50.8086 27.2339" stroke="black" stroke-width="1.2" stroke-linecap="round" stroke-linejoin="round"/>
<path d="M61.1016 24.4985L62.1006 24.5421" stroke="black" stroke-width="1.2" stroke-linecap="round" stroke-linejoin="round"/>
<path d="M54.6289 31.4048L54.6725 30.4058" stroke="black" stroke-width="1.2" stroke-linecap="round" stroke-linejoin="round"/>
<path d="M58.278 20.3716L58.2344 21.3707" stroke="black" stroke-width="1.2" stroke-linecap="round" stroke-linejoin="round"/>
<path d="M52.7184 29.3193L51.6758 30.2747" stroke="black" stroke-width="1.2" stroke-linecap="round" stroke-linejoin="round"/>
<path d="M60.1914 22.4569L61.234 21.5015" stroke="black" stroke-width="1.2" stroke-linecap="round" stroke-linejoin="round"/>
<path d="M84.4414 24.0864L86.3086 27.1707L84.1797 30.0806" stroke="black" stroke-width="1.5"/>
<path d="M82.3769 25.4976L83.3105 27.0398L82.2461 28.4947" stroke="black" stroke-width="1.5"/>
<path d="M104.552 21.9614L103.11 25.7774C103.036 25.9727 102.917 26.148 102.763 26.289C102.61 26.4301 102.425 26.533 102.224 26.5896L98.2969 27.694L102.112 29.1365C102.308 29.2103 102.483 29.3289 102.624 29.4829C102.765 29.6368 102.868 29.8217 102.925 30.0227L104.029 33.95L105.471 30.1339C105.545 29.9386 105.664 29.7634 105.818 29.6223C105.972 29.4813 106.157 29.3783 106.358 29.3218L110.285 28.2174L106.469 26.7749C106.274 26.7011 106.098 26.5824 105.957 26.4285C105.816 26.2746 105.713 26.0896 105.657 25.8886L104.552 21.9614Z" fill="black" fill-opacity="0.15" stroke="black" stroke-width="1.42857" stroke-linecap="round" stroke-linejoin="round"/>
<path d="M99.8903 21.7578L99.7739 24.422M98.5 23.0318L101.164 23.1481" stroke="black" stroke-opacity="0.75" stroke-width="1.42857" stroke-linecap="round" stroke-linejoin="round"/>
<path d="M108.808 31.4897L108.692 34.1539M107.418 32.7636L110.082 32.8799" stroke="black" stroke-opacity="0.75" stroke-width="1.42857" stroke-linecap="round" stroke-linejoin="round"/>
<mask id="mask20_29_87" style="mask-type:luminance" maskUnits="userSpaceOnUse" x="119" y="20" width="18" height="18">
<path d="M136.606 21.359L120.621 20.6611L119.923 36.6459L135.908 37.3438L136.606 21.359Z" fill="white"/>
</mask>
<g mask="url(#mask20_29_87)">
<mask id="mask21_29_87" style="mask-type:luminance" maskUnits="userSpaceOnUse" x="119" y="20" width="18" height="18">
<path d="M136.609 21.359L120.624 20.6611L119.926 36.6459L135.911 37.3438L136.609 21.359Z" fill="white"/>
</mask>
<g mask="url(#mask21_29_87)">
<path d="M121.883 26.2213L122.057 22.2251L125.554 22.3777" stroke="black" stroke-opacity="0.5" stroke-width="1.5"/>
<path d="M134.87 26.7881L135.044 22.7919L131.547 22.6392" stroke="black" stroke-opacity="0.5" stroke-width="1.5"/>
<path d="M121.663 31.2163L121.488 35.2125L124.985 35.3652" stroke="black" stroke-opacity="0.5" stroke-width="1.5"/>
<path d="M134.651 31.7837L134.477 35.7799L130.98 35.6273" stroke="black" stroke-opacity="0.5" stroke-width="1.5"/>
</g>
<path d="M129.86 24.9058C131.254 24.9946 132.312 26.1968 132.223 27.5907L132.059 30.1675C131.97 31.5615 130.768 32.6197 129.374 32.5309L127.796 32.4305C126.402 32.3416 125.344 31.1395 125.433 29.7455L125.597 27.1687C125.686 25.7748 126.888 24.7166 128.282 24.8053L129.86 24.9058ZM128.998 25.5907C127.735 25.5103 126.646 26.4692 126.565 27.7324L126.465 29.3102C126.384 30.5735 127.343 31.6627 128.606 31.7432C129.87 31.8237 130.959 30.8649 131.039 29.6015L131.14 28.0237C131.22 26.7605 130.261 25.6711 128.998 25.5907Z" fill="black"/>
</g>
<path d="M149.856 25.3538C149.603 25.0782 149.251 24.9141 148.878 24.8978C148.505 24.8815 148.14 25.0141 147.864 25.2666C147.589 25.5191 147.425 25.8708 147.408 26.2443C147.392 26.6177 147.525 26.9823 147.777 27.258L154.154 34.2158C154.265 34.3369 154.403 34.4288 154.558 34.4837L156.703 35.2385C156.746 35.2533 156.792 35.2563 156.836 35.2471C156.88 35.2379 156.921 35.217 156.954 35.1865C156.987 35.156 157.012 35.117 157.025 35.0738C157.038 35.0305 157.039 34.9846 157.027 34.9408L156.463 32.7376C156.422 32.5791 156.343 32.433 156.233 32.3122L149.856 25.3538Z" stroke="black" stroke-width="1.33" stroke-linecap="round" stroke-linejoin="round"/>
<path d="M148.336 27.8772L150.421 25.9663" stroke="black" stroke-width="1.33" stroke-linecap="round" stroke-linejoin="round"/>
<path d="M147.718 31.465L146.719 31.4214" stroke="black" stroke-width="1.2" stroke-linecap="round" stroke-linejoin="round"/>
<path d="M157.008 28.686L158.007 28.7296" stroke="black" stroke-width="1.2" stroke-linecap="round" stroke-linejoin="round"/>
<path d="M150.539 35.5923L150.582 34.5933" stroke="black" stroke-width="1.2" stroke-linecap="round" stroke-linejoin="round"/>
<path d="M154.189 24.5591L154.145 25.5582" stroke="black" stroke-width="1.2" stroke-linecap="round" stroke-linejoin="round"/>
<path d="M148.629 33.5068L147.586 34.4622" stroke="black" stroke-width="1.2" stroke-linecap="round" stroke-linejoin="round"/>
<path d="M156.098 26.6444L157.14 25.689" stroke="black" stroke-width="1.2" stroke-linecap="round" stroke-linejoin="round"/>
<path d="M180.352 28.2734L182.219 31.3578L180.09 34.2677" stroke="black" stroke-width="1.5"/>
<path d="M178.287 29.6851L179.22 31.2273L178.156 32.6823" stroke="black" stroke-width="1.5"/>
<path d="M200.463 26.1489L199.021 29.965C198.947 30.1603 198.828 30.3355 198.674 30.4766C198.52 30.6176 198.335 30.7206 198.134 30.7771L194.207 31.8815L198.023 33.324C198.218 33.3978 198.394 33.5165 198.535 33.6704C198.676 33.8244 198.779 34.0093 198.835 34.2103L199.94 38.1375L201.382 34.3215C201.456 34.1262 201.575 33.9509 201.729 33.8099C201.882 33.6688 202.067 33.5659 202.268 33.5094L206.196 32.4049L202.38 30.9625C202.184 30.8886 202.009 30.77 201.868 30.616C201.727 30.4621 201.624 30.2772 201.567 30.0762L200.463 26.1489Z" fill="black" fill-opacity="0.15" stroke="black" stroke-width="1.42857" stroke-linecap="round" stroke-linejoin="round"/>
<path d="M195.8 25.9453L195.684 28.6094M194.41 27.2192L197.074 27.3355" stroke="black" stroke-opacity="0.75" stroke-width="1.42857" stroke-linecap="round" stroke-linejoin="round"/>
<path d="M204.718 35.6772L204.602 38.3413M203.328 36.951L205.992 37.0674" stroke="black" stroke-opacity="0.75" stroke-width="1.42857" stroke-linecap="round" stroke-linejoin="round"/>
<mask id="mask22_29_87" style="mask-type:luminance" maskUnits="userSpaceOnUse" x="215" y="24" width="18" height="18">
<path d="M232.516 25.5465L216.531 24.8486L215.833 40.8334L231.818 41.5313L232.516 25.5465Z" fill="white"/>
</mask>
<g mask="url(#mask22_29_87)">
<mask id="mask23_29_87" style="mask-type:luminance" maskUnits="userSpaceOnUse" x="215" y="24" width="18" height="18">
<path d="M232.519 25.5465L216.534 24.8486L215.836 40.8333L231.821 41.5313L232.519 25.5465Z" fill="white"/>
</mask>
<g mask="url(#mask23_29_87)">
<path d="M217.793 30.4088L217.967 26.4126L221.464 26.5653" stroke="black" stroke-opacity="0.5" stroke-width="1.5"/>
<path d="M230.779 30.9759L230.954 26.9797L227.457 26.8271" stroke="black" stroke-opacity="0.5" stroke-width="1.5"/>
<path d="M217.572 35.4043L217.398 39.4004L220.895 39.5531" stroke="black" stroke-opacity="0.5" stroke-width="1.5"/>
<path d="M230.562 35.9712L230.388 39.9674L226.891 39.8147" stroke="black" stroke-opacity="0.5" stroke-width="1.5"/>
</g>
<path d="M225.586 29.2612C226.98 29.3501 228.038 30.5522 227.95 31.9462L227.786 34.523C227.697 35.917 226.495 36.9751 225.101 36.8864L223.523 36.7859C222.129 36.6971 221.071 35.495 221.16 34.101L221.324 31.5242C221.413 30.1303 222.615 29.0721 224.009 29.1607L225.586 29.2612ZM224.725 29.9461C223.462 29.8658 222.372 30.8247 222.292 32.0878L222.191 33.6657C222.111 34.929 223.07 36.0182 224.333 36.0987C225.596 36.1792 226.685 35.2204 226.766 33.957L226.866 32.3792C226.947 31.1159 225.988 30.0266 224.725 29.9461Z" fill="black"/>
</g>
<path d="M245.765 29.5408C245.513 29.2652 245.161 29.1011 244.788 29.0848C244.414 29.0685 244.05 29.2011 243.774 29.4537C243.498 29.7062 243.334 30.0578 243.318 30.4313C243.302 30.8047 243.434 31.1694 243.687 31.445L250.064 38.4029C250.175 38.5239 250.313 38.6159 250.468 38.6707L252.613 39.4255C252.656 39.4403 252.701 39.4433 252.745 39.4341C252.79 39.425 252.831 39.404 252.864 39.3735C252.897 39.343 252.921 39.3041 252.934 39.2608C252.947 39.2176 252.948 39.1716 252.937 39.1279L252.373 36.9246C252.332 36.7661 252.253 36.62 252.143 36.4992L245.765 29.5408Z" stroke="black" stroke-width="1.33" stroke-linecap="round" stroke-linejoin="round"/>
<path d="M244.246 32.0646L246.331 30.1538" stroke="black" stroke-width="1.33" stroke-linecap="round" stroke-linejoin="round"/>
<path d="M243.625 35.6525L242.625 35.6089" stroke="black" stroke-width="1.2" stroke-linecap="round" stroke-linejoin="round"/>
<path d="M252.918 32.8735L253.917 32.9171" stroke="black" stroke-width="1.2" stroke-linecap="round" stroke-linejoin="round"/>
<path d="M246.449 39.7794L246.493 38.7803" stroke="black" stroke-width="1.2" stroke-linecap="round" stroke-linejoin="round"/>
<path d="M250.094 28.7466L250.051 29.7456" stroke="black" stroke-width="1.2" stroke-linecap="round" stroke-linejoin="round"/>
<path d="M244.538 37.6943L243.496 38.6498" stroke="black" stroke-width="1.2" stroke-linecap="round" stroke-linejoin="round"/>
<path d="M252.008 30.8319L253.051 29.8765" stroke="black" stroke-width="1.2" stroke-linecap="round" stroke-linejoin="round"/>
<path d="M276.258 32.4609L278.125 35.5453L275.996 38.4552" stroke="black" stroke-width="1.5"/>
<path d="M274.197 33.8726L275.131 35.4148L274.066 36.8698" stroke="black" stroke-width="1.5"/>
<mask id="mask24_29_87" style="mask-type:luminance" maskUnits="userSpaceOnUse" x="287" y="27" width="18" height="18">
<path d="M304.446 28.6872L288.461 27.9893L287.763 43.974L303.748 44.6719L304.446 28.6872Z" fill="white"/>
</mask>
<g mask="url(#mask24_29_87)">
<mask id="mask25_29_87" style="mask-type:luminance" maskUnits="userSpaceOnUse" x="287" y="27" width="18" height="18">
<path d="M304.449 28.6872L288.464 27.9893L287.766 43.9741L303.751 44.672L304.449 28.6872Z" fill="white"/>
</mask>
<g mask="url(#mask25_29_87)">
<path d="M289.723 33.5494L289.897 29.5532L293.394 29.7058" stroke="black" stroke-opacity="0.5" stroke-width="1.5"/>
<path d="M302.71 34.1162L302.884 30.12L299.387 29.9673" stroke="black" stroke-opacity="0.5" stroke-width="1.5"/>
<path d="M289.503 38.5444L289.328 42.5406L292.825 42.6933" stroke="black" stroke-opacity="0.5" stroke-width="1.5"/>
<path d="M302.491 39.1118L302.317 43.1079L298.82 42.9553" stroke="black" stroke-opacity="0.5" stroke-width="1.5"/>
</g>
<path d="M297.586 32.2612C298.98 32.3501 300.038 33.5522 299.95 34.9462L299.786 37.523C299.697 38.917 298.495 39.9751 297.101 39.8864L295.523 39.7859C294.129 39.6971 293.071 38.495 293.16 37.101L293.324 34.5242C293.413 33.1303 294.615 32.0721 296.009 32.1607L297.586 32.2612ZM296.725 32.9461C295.462 32.8658 294.372 33.8247 294.292 35.0878L294.191 36.6657C294.111 37.929 295.07 39.0182 296.333 39.0987C297.596 39.1792 298.685 38.2204 298.766 36.957L298.866 35.3792C298.947 34.1159 297.988 33.0266 296.725 32.9461Z" fill="black"/>
</g>
<path d="M317.695 32.6815C317.442 32.4059 317.091 32.2419 316.717 32.2255C316.344 32.2092 315.979 32.3419 315.703 32.5944C315.428 32.8469 315.264 33.1986 315.247 33.572C315.231 33.9455 315.364 34.3101 315.616 34.5858L321.993 41.5436C322.104 41.6646 322.243 41.7566 322.397 41.8115L324.542 42.5662C324.585 42.5811 324.631 42.584 324.675 42.5749C324.719 42.5657 324.76 42.5448 324.793 42.5142C324.826 42.4837 324.851 42.4448 324.864 42.4015C324.877 42.3583 324.878 42.3124 324.866 42.2686L324.302 40.0654C324.261 39.9069 324.182 39.7608 324.072 39.6399L317.695 32.6815Z" stroke="black" stroke-width="1.33" stroke-linecap="round" stroke-linejoin="round"/>
<path d="M316.176 35.2047L318.261 33.2939" stroke="black" stroke-width="1.33" stroke-linecap="round" stroke-linejoin="round"/>
<path d="M315.558 38.7931L314.559 38.7495" stroke="black" stroke-width="1.2" stroke-linecap="round" stroke-linejoin="round"/>
<path d="M324.848 36.0142L325.847 36.0579" stroke="black" stroke-width="1.2" stroke-linecap="round" stroke-linejoin="round"/>
<path d="M318.379 42.92L318.422 41.9209" stroke="black" stroke-width="1.2" stroke-linecap="round" stroke-linejoin="round"/>
<path d="M322.028 31.8872L321.984 32.8862" stroke="black" stroke-width="1.2" stroke-linecap="round" stroke-linejoin="round"/>
<path d="M316.469 40.835L315.426 41.7904" stroke="black" stroke-width="1.2" stroke-linecap="round" stroke-linejoin="round"/>
<path d="M323.938 33.9726L324.98 33.0171" stroke="black" stroke-width="1.2" stroke-linecap="round" stroke-linejoin="round"/>
<path d="M344.326 32.4302L342.883 36.2463C342.81 36.4416 342.691 36.6168 342.537 36.7579C342.383 36.8989 342.198 37.0019 341.997 37.0584L338.07 38.1628L341.886 39.6053C342.081 39.6791 342.256 39.7978 342.397 39.9517C342.539 40.1057 342.641 40.2906 342.698 40.4916L343.802 44.4188L345.245 40.6028C345.319 40.4075 345.437 40.2322 345.591 40.0912C345.745 39.9501 345.93 39.8472 346.131 39.7906L350.058 38.6862L346.242 37.2437C346.047 37.1699 345.872 37.0513 345.731 36.8973C345.59 36.7434 345.487 36.5585 345.43 36.3575L344.326 32.4302Z" fill="black" fill-opacity="0.15" stroke="black" stroke-width="1.42857" stroke-linecap="round" stroke-linejoin="round"/>
<path d="M339.664 32.2266L339.547 34.8907M338.273 33.5005L340.938 33.6168" stroke="black" stroke-opacity="0.75" stroke-width="1.42857" stroke-linecap="round" stroke-linejoin="round"/>
<path d="M348.581 41.958L348.465 44.6222M347.191 43.2319L349.855 43.3482" stroke="black" stroke-opacity="0.75" stroke-width="1.42857" stroke-linecap="round" stroke-linejoin="round"/>
<path d="M372.167 36.6484L374.035 39.7328L371.906 42.6427" stroke="black" stroke-width="1.5"/>
<path d="M370.104 38.0601L371.038 39.6022L369.973 41.0572" stroke="black" stroke-width="1.5"/>
<path d="M392.279 34.5239L390.837 38.3399C390.763 38.5352 390.644 38.7105 390.49 38.8515C390.336 38.9926 390.151 39.0955 389.95 39.152L386.023 40.2565L389.839 41.6989C390.035 41.7728 390.21 41.8914 390.351 42.0454C390.492 42.1993 390.595 42.3842 390.651 42.5852L391.756 46.5125L393.198 42.6964C393.272 42.5011 393.391 42.3259 393.545 42.1848C393.699 42.0437 393.884 41.9408 394.085 41.8843L398.012 40.7799L394.196 39.3374C394 39.2636 393.825 39.1449 393.684 38.991C393.543 38.837 393.44 38.6521 393.384 38.4511L392.279 34.5239Z" fill="black" fill-opacity="0.15" stroke="black" stroke-width="1.42857" stroke-linecap="round" stroke-linejoin="round"/>
<path d="M387.617 34.3203L387.501 36.9844M386.227 35.5942L388.891 35.7105" stroke="black" stroke-opacity="0.75" stroke-width="1.42857" stroke-linecap="round" stroke-linejoin="round"/>
<path d="M396.535 44.0518L396.419 46.716M395.145 45.3257L397.809 45.442" stroke="black" stroke-opacity="0.75" stroke-width="1.42857" stroke-linecap="round" stroke-linejoin="round"/>
<path d="M269.586 31.2612C270.98 31.3501 272.038 32.5522 271.95 33.9462L271.786 36.523C271.697 37.917 270.495 38.9751 269.101 38.8864L267.523 38.7859C266.129 38.6971 265.071 37.495 265.16 36.101L265.324 33.5242C265.413 32.1303 266.615 31.0721 268.009 31.1607L269.586 31.2612ZM268.725 31.9461C267.462 31.8658 266.372 32.8247 266.292 34.0878L266.191 35.6657C266.111 36.929 267.07 38.0182 268.333 38.0987C269.596 38.1792 270.685 37.2204 270.766 35.957L270.866 34.3792C270.947 33.1159 269.988 32.0266 268.725 31.9461Z" fill="black"/>
</g>
<path d="M136.586 53.2612C137.98 53.3501 139.038 54.5522 138.95 55.9462L138.786 58.523C138.697 59.917 137.495 60.9751 136.101 60.8864L134.523 60.7859C133.129 60.6971 132.071 59.495 132.16 58.101L132.324 55.5242C132.413 54.1303 133.615 53.0721 135.009 53.1607L136.586 53.2612ZM135.725 53.9461C134.462 53.8658 133.372 54.8247 133.292 56.0878L133.191 57.6657C133.111 58.929 134.07 60.0182 135.333 60.0987C136.596 60.1792 137.685 59.2204 137.766 57.957L137.866 56.3792C137.947 55.1159 136.988 54.0266 135.725 53.9461Z" fill="black"/>
<path d="M173.586 26.2612C174.98 26.3501 176.038 27.5522 175.95 28.9462L175.786 31.523C175.697 32.917 174.495 33.9751 173.101 33.8864L171.523 33.7859C170.129 33.6971 169.071 32.495 169.16 31.101L169.324 28.5242C169.413 27.1303 170.615 26.0721 172.009 26.1607L173.586 26.2612ZM172.725 26.9461C171.462 26.8658 170.372 27.8247 170.292 29.0878L170.191 30.6657C170.111 31.929 171.07 33.0182 172.333 33.0987C173.596 33.1792 174.685 32.2204 174.766 30.957L174.866 29.3792C174.947 28.1159 173.988 27.0266 172.725 26.9461Z" fill="black"/>
<path d="M77.5864 22.2612C78.9803 22.3501 80.0385 23.5522 79.9499 24.9462L79.7858 27.523C79.697 28.917 78.4948 29.9751 77.1008 29.8864L75.523 29.7859C74.129 29.6971 73.0708 28.495 73.1595 27.101L73.3236 24.5242C73.4125 23.1303 74.6147 22.0721 76.0086 22.1607L77.5864 22.2612ZM76.7247 22.9461C75.4616 22.8658 74.3723 23.8247 74.2917 25.0878L74.1912 26.6657C74.1108 27.929 75.0697 29.0182 76.3329 29.0987C77.5963 29.1792 78.6855 28.2204 78.766 26.957L78.8664 25.3792C78.9467 24.1159 77.988 23.0266 76.7247 22.9461Z" fill="black"/>
<path d="M162.586 -1.73877C163.98 -1.64995 165.038 -0.447753 164.95 0.946161L164.786 3.52297C164.697 4.91699 163.495 5.97513 162.101 5.88641L160.523 5.78593C159.129 5.69707 158.071 4.49499 158.16 3.101L158.324 0.524184C158.413 -0.869691 159.615 -1.92793 161.009 -1.83925L162.586 -1.73877ZM161.725 -1.05387C160.462 -1.1342 159.372 -0.1753 159.292 1.08783L159.191 2.66568C159.111 3.92898 160.07 5.01815 161.333 5.09871C162.596 5.17916 163.685 4.22037 163.766 2.95702L163.866 1.37916C163.947 0.115942 162.988 -0.97342 161.725 -1.05387Z" fill="black"/>
<path d="M234.586 1.26123C235.98 1.35005 237.038 2.55225 236.95 3.94616L236.786 6.52297C236.697 7.91699 235.495 8.97513 234.101 8.88641L232.523 8.78593C231.129 8.69707 230.071 7.49499 230.16 6.101L230.324 3.52418C230.413 2.13031 231.615 1.07207 233.009 1.16075L234.586 1.26123ZM233.725 1.94613C232.462 1.8658 231.372 2.8247 231.292 4.08783L231.191 5.66568C231.111 6.92898 232.07 8.01815 233.333 8.09871C234.596 8.17916 235.685 7.22037 235.766 5.95702L235.866 4.37916C235.947 3.11594 234.988 2.02658 233.725 1.94613Z" fill="black"/>
<path d="M400.586 64.2612C401.98 64.3501 403.038 65.5522 402.95 66.9462L402.786 69.523C402.697 70.917 401.495 71.9751 400.101 71.8864L398.523 71.7859C397.129 71.6971 396.071 70.495 396.16 69.101L396.324 66.5242C396.413 65.1303 397.615 64.0721 399.009 64.1607L400.586 64.2612ZM399.725 64.9461C398.462 64.8658 397.372 65.8247 397.292 67.0878L397.191 68.6657C397.111 69.929 398.07 71.0182 399.333 71.0987C400.596 71.1792 401.685 70.2204 401.766 68.957L401.866 67.3792C401.947 66.1159 400.988 65.0266 399.725 64.9461Z" fill="black"/>
<path d="M330.586 5.26123C331.98 5.35005 333.038 6.55225 332.95 7.94616L332.786 10.523C332.697 11.917 331.495 12.9751 330.101 12.8864L328.523 12.7859C327.129 12.6971 326.071 11.495 326.16 10.101L326.324 7.52418C326.413 6.13031 327.615 5.07207 329.009 5.16075L330.586 5.26123ZM329.725 5.94613C328.462 5.8658 327.372 6.8247 327.292 8.08783L327.191 9.66568C327.111 10.929 328.07 12.0182 329.333 12.0987C330.596 12.1792 331.685 11.2204 331.766 9.95702L331.866 8.37916C331.947 7.11594 330.988 6.02658 329.725 5.94613Z" fill="black"/>
<path d="M365.586 34.2612C366.98 34.3501 368.038 35.5522 367.95 36.9462L367.786 39.523C367.697 40.917 366.495 41.9751 365.101 41.8864L363.523 41.7859C362.129 41.6971 361.071 40.495 361.16 39.101L361.324 36.5242C361.413 35.1303 362.615 34.0721 364.009 34.1607L365.586 34.2612ZM364.725 34.9461C363.462 34.8658 362.372 35.8247 362.292 37.0878L362.191 38.6657C362.111 39.929 363.07 41.0182 364.333 41.0987C365.596 41.1792 366.685 40.2204 366.766 38.957L366.866 37.3792C366.947 36.1159 365.988 35.0266 364.725 34.9461Z" fill="black"/>
<path d="M352.586 62.2612C353.98 62.3501 355.038 63.5522 354.95 64.9462L354.786 67.523C354.697 68.917 353.495 69.9751 352.101 69.8864L350.523 69.7859C349.129 69.6971 348.071 68.495 348.16 67.101L348.324 64.5242C348.413 63.1303 349.615 62.0721 351.009 62.1607L352.586 62.2612ZM351.725 62.9461C350.462 62.8658 349.372 63.8247 349.292 65.0878L349.191 66.6657C349.111 67.929 350.07 69.0182 351.333 69.0987C352.596 69.1792 353.685 68.2204 353.766 66.957L353.866 65.3792C353.947 64.1159 352.988 63.0266 351.725 62.9461Z" fill="black"/>
</g>
<defs>
<clipPath id="clip0_29_87">
<rect width="400" height="92" fill="white"/>
</clipPath>
</defs>
</svg>
