<svg width="194" height="170" viewBox="0 0 194 170" fill="none" xmlns="http://www.w3.org/2000/svg">
<rect x="50" y="89" width="95" height="60" fill="#E5E3E4"/>
<path d="M157.147 143.179L193 169.5C163.532 163.976 103.711 152.733 100.175 151.953C96.6385 151.173 92.8076 151.628 91.3342 151.953L1.5 167.5L32.3975 145.129C45.3308 136.193 73.6532 116.858 83.4759 111.009C93.2987 105.16 103.285 107.922 107.051 110.034L157.147 143.179Z" fill="#B8B7B6" stroke="#B5B5B4"/>
<path d="M1 167.5L96.25 1L97.2963 47.8028V77.4697C97.1199 82.1345 96.2381 92.397 94.1217 96.1289C92.0053 99.8607 89.0071 103.282 87.7725 104.526L1 167.5Z" fill="#D9D9D9" stroke="#DDDCDB" stroke-linejoin="round"/>
<path d="M193.5 169L96.5 1L96 48.4432V78.1991C96.1795 82.8779 97.0769 93.1713 99.2308 96.9143C101.385 100.657 104.436 104.088 105.692 105.336L193.5 169Z" fill="#FCFBFB" stroke="#FBFBFA" stroke-linejoin="round"/>
</svg>
