<svg width="17" height="16" viewBox="0 0 17 16" fill="none" xmlns="http://www.w3.org/2000/svg">
<rect x="4.92578" y="8.3125" width="7.89282" height="4.98494" fill="#1B221B" fill-opacity="0.8"/>
<path d="M13.828 12.812L16.8067 14.9988C14.3584 14.5398 9.3884 13.6057 9.0946 13.5409C8.80081 13.4761 8.48253 13.5139 8.36011 13.5409L0.896484 14.8326L3.46352 12.9739C4.53805 12.2315 6.89113 10.6251 7.70723 10.1392C8.52333 9.65324 9.35303 9.88272 9.66587 10.0582L13.828 12.812Z" fill="#150E15" stroke="#150E15" stroke-width="0.0830823"/>
<path d="M0.855469 14.8332L8.76906 1L8.85598 4.88848V7.35327C8.84133 7.74084 8.76807 8.59347 8.59223 8.90352C8.4164 9.21357 8.1673 9.49779 8.06472 9.60114L0.855469 14.8332Z" fill="#1B221B" stroke="#1B221B" stroke-width="0.0830823" stroke-linejoin="round"/>
<path d="M16.8477 14.9578L8.78868 1L8.74713 4.94169V7.41388C8.76205 7.8026 8.83661 8.6578 9.01555 8.96878C9.1945 9.27976 9.44801 9.56483 9.55239 9.66849L16.8477 14.9578Z" fill="#393D49" stroke="#393D49" stroke-width="0.0830823" stroke-linejoin="round"/>
</svg>
